<svg width="195" height="102" viewBox="0 0 195 102" fill="none" xmlns="http://www.w3.org/2000/svg">
<path d="M10.176 61V58.4976L30.576 25.2592H19.424C18.336 25.2592 17.4837 25.4768 16.8672 25.912C16.2507 26.3109 15.7973 26.8731 15.5072 27.5984C15.2533 28.2875 15.072 29.0853 14.9632 29.992L14.6912 32.712H11.2096L11.4816 22.1584H39.28V24.7152L18.8256 57.8992H31.3376C32.6432 57.8992 33.6587 57.6635 34.384 57.192C35.1456 56.6843 35.6715 56.0496 35.9616 55.288C36.288 54.5264 36.4875 53.7104 36.56 52.84L36.832 50.4464H40.368L40.096 61H10.176ZM53.7338 61.544C52.1381 61.544 50.6874 61.2357 49.3818 60.6192C48.1125 59.9664 47.097 58.9872 46.3354 57.6816C45.6101 56.376 45.2474 54.7259 45.2474 52.7312C45.2474 49.8299 46.2629 47.672 48.2938 46.2576C50.3248 44.8432 53.3893 44.0635 57.4874 43.9184L62.0026 43.7552V40.6544C62.0026 39.4213 61.912 38.3333 61.7306 37.3904C61.5493 36.4112 61.1685 35.6496 60.5882 35.1056C60.0442 34.5616 59.1738 34.2896 57.977 34.2896C56.889 34.2896 56.0368 34.5435 55.4202 35.0512C54.8037 35.5589 54.3866 36.2661 54.169 37.1728C53.9514 38.0432 53.8426 39.0405 53.8426 40.1648C51.7392 40.1648 50.1616 39.9109 49.1098 39.4032C48.0581 38.8592 47.5322 37.9344 47.5322 36.6288C47.5322 35.3232 48.0037 34.2715 48.9466 33.4736C49.9258 32.6757 51.2314 32.0955 52.8634 31.7328C54.4954 31.3701 56.2725 31.1888 58.1946 31.1888C61.8213 31.1888 64.5413 31.896 66.3546 33.3104C68.168 34.6885 69.0746 37.0821 69.0746 40.4912V54.472C69.0746 55.4512 69.1653 56.2309 69.3466 56.8112C69.5642 57.3552 69.9269 57.7541 70.4346 58.008C70.9424 58.2256 71.5952 58.3344 72.393 58.3344H72.5562V61H63.5258L62.4378 56.92H62.0026C61.2048 57.8992 60.4432 58.7333 59.7178 59.4224C59.0288 60.1115 58.2128 60.6373 57.2698 61C56.3632 61.3627 55.1845 61.544 53.7338 61.544ZM56.073 57.7904C57.3061 57.7904 58.3578 57.5003 59.2282 56.92C60.0986 56.3397 60.7696 55.5056 61.241 54.4176C61.7488 53.3296 62.0026 52.0603 62.0026 50.6096V46.4208L59.1738 46.584C57.4693 46.6565 56.1274 46.9467 55.1482 47.4544C54.2053 47.9621 53.5162 48.6693 53.081 49.576C52.6821 50.4827 52.4826 51.6069 52.4826 52.9488C52.4826 54.0368 52.6096 54.9435 52.8634 55.6688C53.1173 56.3579 53.5162 56.8837 54.0602 57.2464C54.6042 57.6091 55.2752 57.7904 56.073 57.7904ZM85.5557 61.544C83.96 61.544 82.5093 61.2357 81.2037 60.6192C79.9344 59.9664 78.9189 58.9872 78.1573 57.6816C77.432 56.376 77.0693 54.7259 77.0693 52.7312C77.0693 49.8299 78.0848 47.672 80.1157 46.2576C82.1466 44.8432 85.2112 44.0635 89.3093 43.9184L93.8245 43.7552V40.6544C93.8245 39.4213 93.7338 38.3333 93.5525 37.3904C93.3712 36.4112 92.9904 35.6496 92.4101 35.1056C91.8661 34.5616 90.9957 34.2896 89.7989 34.2896C88.7109 34.2896 87.8586 34.5435 87.2421 35.0512C86.6256 35.5589 86.2085 36.2661 85.9909 37.1728C85.7733 38.0432 85.6645 39.0405 85.6645 40.1648C83.561 40.1648 81.9834 39.9109 80.9317 39.4032C79.88 38.8592 79.3541 37.9344 79.3541 36.6288C79.3541 35.3232 79.8256 34.2715 80.7685 33.4736C81.7477 32.6757 83.0533 32.0955 84.6853 31.7328C86.3173 31.3701 88.0944 31.1888 90.0165 31.1888C93.6432 31.1888 96.3632 31.896 98.1765 33.3104C99.9898 34.6885 100.896 37.0821 100.896 40.4912V54.472C100.896 55.4512 100.987 56.2309 101.168 56.8112C101.386 57.3552 101.749 57.7541 102.257 58.008C102.764 58.2256 103.417 58.3344 104.215 58.3344H104.378V61H95.3477L94.2597 56.92H93.8245C93.0266 57.8992 92.265 58.7333 91.5397 59.4224C90.8506 60.1115 90.0346 60.6373 89.0917 61C88.185 61.3627 87.0064 61.544 85.5557 61.544ZM87.8949 57.7904C89.128 57.7904 90.1797 57.5003 91.0501 56.92C91.9205 56.3397 92.5914 55.5056 93.0629 54.4176C93.5706 53.3296 93.8245 52.0603 93.8245 50.6096V46.4208L90.9957 46.584C89.2912 46.6565 87.9493 46.9467 86.9701 47.4544C86.0272 47.9621 85.3381 48.6693 84.9029 49.576C84.504 50.4827 84.3045 51.6069 84.3045 52.9488C84.3045 54.0368 84.4314 54.9435 84.6853 55.6688C84.9392 56.3579 85.3381 56.8837 85.8821 57.2464C86.4261 57.6091 87.097 57.7904 87.8949 57.7904ZM119.499 61.544C116.924 61.544 114.948 60.9093 113.57 59.64C112.228 58.3707 111.557 56.1584 111.557 53.0032V35.3232H107.422V32.7664C108.402 32.7664 109.326 32.5669 110.197 32.168C111.067 31.7691 111.793 31.2795 112.373 30.6992C112.917 30.0827 113.406 29.3211 113.842 28.4144C114.277 27.5077 114.621 26.4016 114.875 25.096H118.629V31.8416H125.646V35.3232H118.629V52.7312C118.629 54.4357 118.937 55.7051 119.554 56.5392C120.206 57.3371 121.149 57.736 122.382 57.736C123.108 57.736 123.761 57.6997 124.341 57.6272C124.957 57.5184 125.556 57.3915 126.136 57.2464V60.3472C125.592 60.6011 124.722 60.8549 123.525 61.1088C122.364 61.3989 121.022 61.544 119.499 61.544ZM138.309 61.544C136.713 61.544 135.262 61.2357 133.957 60.6192C132.687 59.9664 131.672 58.9872 130.91 57.6816C130.185 56.376 129.822 54.7259 129.822 52.7312C129.822 49.8299 130.838 47.672 132.869 46.2576C134.9 44.8432 137.964 44.0635 142.062 43.9184L146.578 43.7552V40.6544C146.578 39.4213 146.487 38.3333 146.306 37.3904C146.124 36.4112 145.743 35.6496 145.163 35.1056C144.619 34.5616 143.749 34.2896 142.552 34.2896C141.464 34.2896 140.612 34.5435 139.995 35.0512C139.379 35.5589 138.962 36.2661 138.744 37.1728C138.526 38.0432 138.418 39.0405 138.418 40.1648C136.314 40.1648 134.737 39.9109 133.685 39.4032C132.633 38.8592 132.107 37.9344 132.107 36.6288C132.107 35.3232 132.579 34.2715 133.522 33.4736C134.501 32.6757 135.806 32.0955 137.438 31.7328C139.07 31.3701 140.847 31.1888 142.77 31.1888C146.396 31.1888 149.116 31.896 150.93 33.3104C152.743 34.6885 153.65 37.0821 153.65 40.4912V54.472C153.65 55.4512 153.74 56.2309 153.922 56.8112C154.139 57.3552 154.502 57.7541 155.01 58.008C155.517 58.2256 156.17 58.3344 156.968 58.3344H157.131V61H148.101L147.013 56.92H146.578C145.78 57.8992 145.018 58.7333 144.293 59.4224C143.604 60.1115 142.788 60.6373 141.845 61C140.938 61.3627 139.759 61.544 138.309 61.544ZM140.648 57.7904C141.881 57.7904 142.933 57.5003 143.803 56.92C144.674 56.3397 145.345 55.5056 145.816 54.4176C146.324 53.3296 146.578 52.0603 146.578 50.6096V46.4208L143.749 46.584C142.044 46.6565 140.702 46.9467 139.723 47.4544C138.78 47.9621 138.091 48.6693 137.656 49.576C137.257 50.4827 137.058 51.6069 137.058 52.9488C137.058 54.0368 137.185 54.9435 137.438 55.6688C137.692 56.3579 138.091 56.8837 138.635 57.2464C139.179 57.6091 139.85 57.7904 140.648 57.7904ZM160.448 61V58.3344H160.611C161.445 58.3344 162.17 58.2437 162.787 58.0624C163.44 57.8811 163.947 57.5184 164.31 56.9744C164.709 56.3941 164.908 55.5419 164.908 54.4176V38.2064C164.908 37.1184 164.727 36.3205 164.364 35.8128C164.002 35.2688 163.512 34.9243 162.896 34.7792C162.279 34.5979 161.572 34.5072 160.774 34.5072H160.611V31.8416H170.62L171.654 36.52H171.926C172.397 35.432 172.923 34.4891 173.504 33.6912C174.12 32.8933 174.9 32.2949 175.843 31.896C176.786 31.4608 178.019 31.2432 179.542 31.2432C181.609 31.2432 183.132 31.6059 184.112 32.3312C185.127 33.0565 185.635 34.1083 185.635 35.4864C185.635 36.9371 185.109 38.0976 184.057 38.968C183.005 39.8021 181.464 40.2192 179.433 40.2192C179.433 39.2037 179.342 38.3877 179.161 37.7712C179.016 37.1184 178.744 36.6288 178.345 36.3024C177.946 35.976 177.402 35.8128 176.713 35.8128C175.734 35.8128 174.936 36.1755 174.32 36.9008C173.703 37.5899 173.213 38.4603 172.851 39.512C172.524 40.5637 172.289 41.6517 172.144 42.776C172.035 43.9003 171.98 44.8432 171.98 45.6048V54.6896C171.98 55.7413 172.162 56.5392 172.524 57.0832C172.887 57.5909 173.377 57.9355 173.993 58.1168C174.61 58.2619 175.281 58.3344 176.006 58.3344H177.692V61H160.448Z" fill="#F6E9D6"/>
<path d="M27.5832 89.192C26.5336 89.192 25.5672 89.0256 24.684 88.6928C23.8136 88.3472 23.052 87.8672 22.3992 87.2528C21.7464 86.6256 21.2408 85.8896 20.8824 85.0448C20.524 84.2 20.3448 83.2784 20.3448 82.28C20.3448 81.2816 20.524 80.36 20.8824 79.5152C21.2408 78.6704 21.7464 77.9408 22.3992 77.3264C23.0648 76.6992 23.8392 76.2192 24.7224 75.8864C25.6056 75.5408 26.572 75.368 27.6216 75.368C28.7608 75.368 29.7848 75.5536 30.6936 75.9248C31.6152 76.296 32.3896 76.84 33.0168 77.5568L31.4424 79.0928C30.9176 78.568 30.348 78.184 29.7336 77.9408C29.132 77.6848 28.4664 77.5568 27.7368 77.5568C27.0328 77.5568 26.38 77.672 25.7784 77.9024C25.1768 78.1328 24.6584 78.4592 24.2232 78.8816C23.788 79.304 23.4488 79.8032 23.2056 80.3792C22.9752 80.9552 22.86 81.5888 22.86 82.28C22.86 82.9584 22.9752 83.5856 23.2056 84.1616C23.4488 84.7376 23.788 85.2432 24.2232 85.6784C24.6584 86.1008 25.1704 86.4272 25.7592 86.6576C26.348 86.888 27.0008 87.0032 27.7176 87.0032C28.3832 87.0032 29.0232 86.9008 29.6376 86.696C30.2648 86.4784 30.86 86.12 31.4232 85.6208L32.844 87.4832C32.14 88.0464 31.3208 88.4752 30.3864 88.7696C29.4648 89.0512 28.5304 89.192 27.5832 89.192ZM30.4824 87.1568V82.1264H32.844V87.4832L30.4824 87.1568ZM37.2881 89V75.56H42.8177C44.0081 75.56 45.0257 75.752 45.8705 76.136C46.7281 76.52 47.3873 77.0704 47.8481 77.7872C48.3089 78.504 48.5393 79.3552 48.5393 80.3408C48.5393 81.3264 48.3089 82.1776 47.8481 82.8944C47.3873 83.5984 46.7281 84.1424 45.8705 84.5264C45.0257 84.8976 44.0081 85.0832 42.8177 85.0832H38.6705L39.7841 83.9504V89H37.2881ZM46.0817 89L42.6833 84.1232H45.3521L48.7697 89H46.0817ZM39.7841 84.2192L38.6705 83.0288H42.7025C43.8033 83.0288 44.6289 82.792 45.1793 82.3184C45.7425 81.8448 46.0241 81.1856 46.0241 80.3408C46.0241 79.4832 45.7425 78.824 45.1793 78.3632C44.6289 77.9024 43.8033 77.672 42.7025 77.672H38.6705L39.7841 76.4432V84.2192ZM52.4838 89V75.56H54.9798V89H52.4838ZM59.767 89V75.56H62.2631V86.888H69.2903V89H59.767ZM72.4128 89V75.56H74.9088V86.888H81.936V89H72.4128ZM95.3952 89.192C94.4608 89.192 93.6224 89.0384 92.88 88.7312C92.1376 88.424 91.5552 88.0016 91.1328 87.464C90.7104 86.9264 90.4992 86.3056 90.4992 85.6016C90.4992 84.9616 90.64 84.3856 90.9216 83.8736C91.2032 83.3616 91.6512 82.8752 92.2656 82.4144C92.88 81.9408 93.6672 81.4672 94.6272 80.9936C95.3824 80.6224 95.9712 80.296 96.3936 80.0144C96.8288 79.7328 97.1296 79.464 97.296 79.208C97.4752 78.952 97.5648 78.6832 97.5648 78.4016C97.5648 78.0176 97.4304 77.7104 97.1616 77.48C96.8928 77.2368 96.5088 77.1152 96.0096 77.1152C95.472 77.1152 95.0496 77.2496 94.7424 77.5184C94.448 77.7744 94.3008 78.1136 94.3008 78.536C94.3008 78.7536 94.3392 78.9648 94.416 79.1696C94.5056 79.3744 94.6592 79.6048 94.8768 79.8608C95.0944 80.1168 95.408 80.4432 95.8176 80.84L102.922 87.656L101.597 89.2112L93.9168 81.8384C93.4816 81.416 93.1296 81.0256 92.8608 80.6672C92.592 80.3088 92.4 79.9632 92.2848 79.6304C92.1696 79.2848 92.112 78.9328 92.112 78.5744C92.112 77.9472 92.272 77.3968 92.592 76.9232C92.912 76.4368 93.3664 76.0656 93.9552 75.8096C94.544 75.5408 95.2288 75.4064 96.0096 75.4064C96.7392 75.4064 97.3664 75.528 97.8912 75.7712C98.4288 76.0016 98.8448 76.3408 99.1392 76.7888C99.4464 77.224 99.6 77.7488 99.6 78.3632C99.6 78.9008 99.4656 79.4 99.1968 79.8608C98.928 80.3088 98.5056 80.7376 97.9296 81.1472C97.3664 81.5568 96.6112 81.9856 95.664 82.4336C94.96 82.7792 94.4032 83.1056 93.9936 83.4128C93.584 83.72 93.2896 84.0272 93.1104 84.3344C92.9312 84.6416 92.8416 84.9808 92.8416 85.352C92.8416 85.7232 92.9504 86.0496 93.168 86.3312C93.3984 86.6128 93.7184 86.8368 94.128 87.0032C94.5376 87.1568 95.0176 87.2336 95.568 87.2336C96.3872 87.2336 97.1296 87.0544 97.7952 86.696C98.4736 86.3248 99.0432 85.7744 99.504 85.0448C99.9648 84.3152 100.298 83.4128 100.502 82.3376L102.442 82.9712C102.173 84.264 101.706 85.3776 101.04 86.312C100.387 87.2336 99.5808 87.944 98.6208 88.4432C97.6608 88.9424 96.5856 89.192 95.3952 89.192ZM112.683 89V75.56H118.213C119.403 75.56 120.421 75.752 121.266 76.136C122.123 76.52 122.783 77.0704 123.243 77.7872C123.704 78.504 123.935 79.3552 123.935 80.3408C123.935 81.3264 123.704 82.1776 123.243 82.8944C122.783 83.6112 122.123 84.1616 121.266 84.5456C120.421 84.9296 119.403 85.1216 118.213 85.1216H114.066L115.179 83.9504V89H112.683ZM115.179 84.2192L114.066 83.0096H118.098C119.199 83.0096 120.024 82.7792 120.575 82.3184C121.138 81.8448 121.419 81.1856 121.419 80.3408C121.419 79.4832 121.138 78.824 120.575 78.3632C120.024 77.9024 119.199 77.672 118.098 77.672H114.066L115.179 76.4432V84.2192ZM127.579 89V75.56H130.075V89H127.579ZM133.845 89V87.3296L142.523 76.7312L142.811 77.672H133.979V75.56H145.058V77.2304L136.379 87.8288L136.072 86.888H145.307V89H133.845ZM147.728 89V87.3296L156.406 76.7312L156.694 77.672H147.862V75.56H158.941V77.2304L150.262 87.8288L149.955 86.888H159.19V89H147.728ZM160.728 89L166.776 75.56H169.234L175.301 89H172.69L167.486 76.8848H168.485L163.301 89H160.728ZM163.512 85.8896L164.184 83.9312H171.442L172.114 85.8896H163.512Z" fill="#C4924C"/>
</svg>
