<svg width="32" height="24" viewBox="0 0 32 24" fill="none" xmlns="http://www.w3.org/2000/svg">
<path fill-rule="evenodd" clip-rule="evenodd" d="M0 4.8C0 2.14903 2.14903 0 4.8 0H27.2C29.851 0 32 2.14903 32 4.8V19.2C32 21.851 29.851 24 27.2 24H4.8C2.14903 24 0 21.851 0 19.2V4.8Z" fill="#229E45"/>
<path fill-rule="evenodd" clip-rule="evenodd" d="M16.0705 21.8L31.1455 12.015L15.9805 2.19995L0.855469 12.035L16.0705 21.8Z" fill="#F8E509"/>
<path fill-rule="evenodd" clip-rule="evenodd" d="M22.6384 12C22.6384 15.515 19.7834 18.365 16.2584 18.365C14.9988 18.363 13.768 17.9876 12.7217 17.2863C11.6753 16.5849 10.8604 15.589 10.38 14.4246C9.89954 13.2602 9.77511 11.9794 10.0224 10.7443C10.2697 9.50918 10.8777 8.37509 11.7695 7.48543C12.6612 6.59577 13.7967 5.99048 15.0325 5.74606C16.2682 5.50165 17.5486 5.62909 18.7119 6.11228C19.8752 6.59547 20.8691 7.41271 21.568 8.46069C22.2669 9.50867 22.6394 10.7403 22.6384 12Z" fill="#2B49A3"/>
<path fill-rule="evenodd" clip-rule="evenodd" d="M14.1661 15.8151L13.9661 15.7001L13.7661 15.8001L13.8111 15.5751L13.6511 15.4051L13.8761 15.3801L13.9861 15.1801L14.0811 15.3901L14.3011 15.4301L14.1361 15.5801M18.4361 16.8951L18.2411 16.7801L18.0411 16.8801L18.0811 16.6551L17.9261 16.4901L18.1511 16.4651L18.2561 16.2601L18.3561 16.4701L18.5761 16.5101L18.4061 16.6651M16.5961 15.1651L16.4261 15.0651L16.2511 15.1551L16.2911 14.9601L16.1511 14.8151L16.3511 14.7951L16.4411 14.6151L16.5211 14.8001L16.7161 14.8351L16.5661 14.9701M20.9161 14.5451L20.7461 14.4451L20.5711 14.5351L20.6111 14.3401L20.4761 14.2001L20.6711 14.1801L20.7611 14.0051L20.8411 14.1851L21.0311 14.2201L20.8861 14.3501M16.5211 13.2501L16.3211 13.1401L16.1211 13.2401L16.1611 13.0101L16.0061 12.8451L16.2311 12.8201L16.3361 12.6151L16.4361 12.8251L16.6561 12.8651L16.4861 13.0251M11.2561 11.2751L11.0561 11.1651L10.8561 11.2651L10.9061 11.0351L10.7411 10.8701L10.9711 10.8451L11.0711 10.6401L11.1711 10.8501L11.3911 10.8901L11.2261 11.0451M11.8911 13.9051L11.6911 13.7901L11.4911 13.8901L11.5361 13.6651L11.3761 13.5001L11.6011 13.4701L11.7061 13.2701L11.8061 13.4801L12.0261 13.5201L11.8611 13.6751M18.4611 10.3101L18.2811 10.2101L18.1011 10.3001L18.1411 10.1001L18.0011 9.95012L18.2011 9.92512L18.2961 9.74512L18.3811 9.93512L18.5811 9.97012L18.4311 10.1051M18.0961 12.0201L17.9611 11.9401L17.8161 12.0101L17.8461 11.8501L17.7361 11.7351L17.8961 11.7151L17.9711 11.5751L18.0361 11.7251L18.1861 11.7501L18.0761 11.8601M10.9661 14.3801L10.8311 14.3051L10.6961 14.3701L10.7261 14.2201L10.6211 14.1101L10.7711 14.0901L10.8411 13.9551L10.9061 14.0951L11.0561 14.1251L10.9411 14.2251M20.9511 14.9901L20.8411 14.9351L20.7311 14.9851L20.7561 14.8701L20.6711 14.7901L20.7911 14.7751L20.8511 14.6751L20.9011 14.7751L21.0261 14.8001L20.9311 14.8751" fill="#FFFFEF"/>
<path fill-rule="evenodd" clip-rule="evenodd" d="M10.9661 14.3801L10.8311 14.3051L10.6961 14.3701L10.7261 14.2201L10.6211 14.1101L10.7711 14.0901L10.8411 13.9551L10.9061 14.0951L11.0561 14.1251L10.9411 14.2251" fill="#FFFFEF"/>
<path fill-rule="evenodd" clip-rule="evenodd" d="M10.9661 14.3801L10.8311 14.3051L10.6961 14.3701L10.7261 14.2201L10.6211 14.1101L10.7711 14.0901L10.8411 13.9551L10.9061 14.0951L11.0561 14.1251L10.9411 14.2251M13.0561 14.3751L12.9261 14.3051L12.7911 14.3701L12.8211 14.2201L12.7161 14.1101L12.8661 14.0901L12.9361 13.9551L13.0011 14.0951L13.1511 14.1201L13.0361 14.2251M12.7961 15.0751L12.6661 15.0001L12.5311 15.0701L12.5611 14.9201L12.4561 14.8051L12.6061 14.7851L12.6761 14.6501L12.7411 14.7901L12.8911 14.8201L12.7761 14.9201M17.1461 13.8101L17.0161 13.7301L16.8761 13.8001L16.9061 13.6501L16.8061 13.5351L16.9561 13.5201L17.0261 13.3851L17.0861 13.5251L17.2361 13.5501L17.1261 13.6551M15.8711 13.8051L15.7361 13.7301L15.6011 13.8001L15.6311 13.6501L15.5311 13.5351L15.6811 13.5201L15.7511 13.3801L15.8111 13.5251L15.9611 13.5501L15.8511 13.6551M12.4111 13.3651L12.3261 13.3151L12.2411 13.3551L12.2611 13.2601L12.1961 13.1901L12.2911 13.1801L12.3311 13.0951L12.3711 13.1851L12.4661 13.2001L12.3961 13.2651M20.7861 15.5351L20.6561 15.4601L20.5211 15.5301L20.5511 15.3801L20.4461 15.2651L20.5961 15.2451L20.6661 15.1101L20.7311 15.2501L20.8811 15.2801L20.7661 15.3801M19.7261 15.6801L19.6161 15.6101L19.5011 15.6701L19.5261 15.5401L19.4411 15.4501L19.5661 15.4351L19.6261 15.3201L19.6761 15.4401L19.8011 15.4601L19.7061 15.5501M20.2261 15.6651L20.1261 15.6051L20.0211 15.6551L20.0411 15.5401L19.9611 15.4551L20.0761 15.4401L20.1311 15.3401L20.1811 15.4401L20.2961 15.4651L20.2111 15.5451M21.6661 14.4051L21.5661 14.3551L21.4661 14.4051L21.4911 14.2901L21.4111 14.2051L21.5261 14.1901L21.5761 14.0901L21.6261 14.1951L21.7311 14.2151L21.6511 14.2951M19.7111 16.3851L19.5861 16.3151L19.4511 16.3751L19.4811 16.2351L19.3811 16.1351L19.5311 16.1201L19.5961 15.9951L19.6561 16.1251L19.8061 16.1501L19.6911 16.2451M19.7211 16.9551L19.6011 16.8851L19.4811 16.9501L19.5111 16.8101L19.4161 16.7101L19.5511 16.6901L19.6111 16.5651L19.6661 16.6951L19.8011 16.7201L19.7011 16.8201M18.7511 15.6651L18.6561 15.6051L18.5561 15.6551L18.5761 15.5451L18.5011 15.4601L18.6111 15.4501L18.6611 15.3501L18.7111 15.4501L18.8211 15.4701L18.7411 15.5501M17.8511 15.6651L17.7511 15.6051L17.6511 15.6551L17.6761 15.5451L17.5961 15.4601L17.7111 15.4501L17.7611 15.3501L17.8111 15.4501L17.9161 15.4701L17.8361 15.5501M16.3161 14.3201L16.2161 14.2651L16.1161 14.3151L16.1411 14.2001L16.0611 14.1201L16.1711 14.1051L16.2211 14.0051L16.2711 14.1051L16.3811 14.1301L16.3011 14.2051M16.4861 17.0551L16.4061 17.0101L16.3161 17.0551L16.3361 16.9551L16.2711 16.8851L16.3661 16.8751L16.4111 16.7901L16.4511 16.8801L16.5461 16.8951L16.4761 16.9601M14.1661 12.6301L13.9661 12.5151L13.7661 12.6151L13.8111 12.3901L13.6511 12.2251L13.8761 12.1951L13.9861 11.9951L14.0811 12.2051L14.3011 12.2451L14.1361 12.4001" fill="#FFFFEF"/>
<path fill-rule="evenodd" clip-rule="evenodd" d="M22.2204 14.2902C22.3443 13.9687 22.4413 13.6376 22.5104 13.3002C19.1204 10.3252 15.3454 8.80016 10.5754 9.11516C10.4024 9.44991 10.2601 9.79968 10.1504 10.1602C15.8004 9.62016 19.9504 12.1202 22.2204 14.2902Z" fill="white"/>
<path d="M20.7002 12.62L20.8152 12.685C20.798 12.719 20.7927 12.7577 20.8002 12.795C20.8119 12.8312 20.8369 12.8616 20.8702 12.88C20.9052 12.905 20.9402 12.92 20.9702 12.915C21.0002 12.915 21.0202 12.9 21.0352 12.88C21.0439 12.8668 21.0474 12.8508 21.0452 12.835C21.0411 12.8166 21.0325 12.7994 21.0202 12.785C21.0102 12.77 20.9852 12.735 20.9452 12.695C20.904 12.6526 20.8732 12.6013 20.8552 12.545C20.8427 12.5025 20.8459 12.4568 20.8643 12.4165C20.8826 12.3761 20.9149 12.3436 20.9552 12.325C20.9915 12.3099 21.0317 12.3064 21.0702 12.315C21.1172 12.3259 21.1614 12.3463 21.2002 12.375C21.2702 12.425 21.3152 12.475 21.3302 12.535C21.3371 12.5631 21.338 12.5923 21.3328 12.6208C21.3276 12.6492 21.3165 12.6762 21.3002 12.7L21.1802 12.625C21.1952 12.595 21.2002 12.565 21.1902 12.54C21.1852 12.515 21.1652 12.49 21.1302 12.47C21.1045 12.4494 21.073 12.4372 21.0402 12.435C21.0311 12.4347 21.0221 12.4369 21.0142 12.4413C21.0063 12.4457 20.9997 12.4522 20.9952 12.46C20.9852 12.475 20.9852 12.49 20.9902 12.51C20.9952 12.53 21.0202 12.57 21.0702 12.62C21.1202 12.67 21.1502 12.715 21.1702 12.745C21.188 12.7778 21.1961 12.815 21.1934 12.8522C21.1908 12.8895 21.1775 12.9252 21.1552 12.955C21.1318 12.989 21.0986 13.0152 21.0602 13.03C21.0227 13.0473 20.9807 13.0526 20.9402 13.045C20.8952 13.035 20.8502 13.015 20.8002 12.98C20.7252 12.93 20.6802 12.875 20.6652 12.815C20.6489 12.747 20.6596 12.6753 20.6952 12.615L20.7002 12.62ZM20.1202 12.24L20.2452 12.305C20.2297 12.3396 20.2262 12.3783 20.2352 12.415C20.2479 12.4494 20.2728 12.4778 20.3052 12.495C20.3452 12.52 20.3752 12.53 20.4052 12.525C20.4352 12.525 20.4552 12.51 20.4702 12.485C20.4777 12.4732 20.4813 12.4591 20.4802 12.445C20.4802 12.43 20.4702 12.41 20.4552 12.395C20.4295 12.3641 20.4029 12.3341 20.3752 12.305C20.3202 12.25 20.2852 12.205 20.2752 12.165C20.267 12.1393 20.2645 12.1121 20.268 12.0853C20.2714 12.0586 20.2807 12.0329 20.2952 12.01C20.3142 11.9792 20.3421 11.9548 20.3752 11.94C20.4095 11.9242 20.4478 11.919 20.4852 11.925C20.5314 11.9328 20.5756 11.9498 20.6152 11.975C20.6902 12.025 20.7352 12.075 20.7502 12.13C20.7593 12.1582 20.7622 12.1879 20.7587 12.2172C20.7553 12.2466 20.7455 12.2748 20.7302 12.3L20.6052 12.23C20.6202 12.195 20.6252 12.17 20.6152 12.145C20.6052 12.12 20.5852 12.095 20.5502 12.075C20.5225 12.0552 20.4892 12.0447 20.4552 12.045C20.4469 12.0456 20.439 12.0482 20.432 12.0525C20.425 12.0569 20.4193 12.0629 20.4152 12.07C20.4052 12.085 20.4052 12.1 20.4102 12.12C20.4152 12.14 20.4452 12.18 20.4952 12.23C20.5452 12.28 20.5802 12.32 20.5952 12.35C20.6152 12.3814 20.6258 12.4178 20.6258 12.455C20.6258 12.4923 20.6152 12.5287 20.5952 12.56C20.5736 12.5949 20.5423 12.6227 20.5052 12.64C20.4677 12.6573 20.4257 12.6626 20.3852 12.655C20.3337 12.6464 20.2844 12.6277 20.2402 12.6C20.1755 12.5656 20.1257 12.5087 20.1002 12.44C20.0808 12.3733 20.088 12.3017 20.1202 12.24ZM19.4102 12.05L19.7752 11.45L20.2152 11.725L20.1552 11.825L19.8352 11.625L19.7552 11.76L20.0552 11.945L19.9902 12.045L19.6902 11.86L19.5902 12.025L19.9252 12.225L19.8652 12.325L19.4152 12.05H19.4102ZM18.3752 11.2L18.4302 11.1L18.7002 11.235L18.5752 11.485C18.5352 11.495 18.4852 11.5 18.4252 11.495C18.3675 11.4887 18.3116 11.4717 18.2602 11.445C18.1997 11.4156 18.1479 11.3707 18.1102 11.315C18.0758 11.2633 18.0583 11.2022 18.0602 11.14C18.0627 11.0754 18.0798 11.0122 18.1102 10.955C18.1402 10.8949 18.1849 10.8433 18.2402 10.805C18.293 10.7685 18.3559 10.7493 18.4202 10.75C18.4702 10.75 18.5202 10.765 18.5802 10.8C18.6602 10.835 18.7102 10.885 18.7352 10.94C18.7612 10.9946 18.7665 11.0568 18.7502 11.115L18.6152 11.075C18.6234 11.0416 18.6199 11.0062 18.6052 10.975C18.5902 10.945 18.5652 10.925 18.5252 10.905C18.5018 10.8917 18.476 10.8835 18.4493 10.8809C18.4225 10.8784 18.3956 10.8815 18.3702 10.89C18.3202 10.905 18.2752 10.95 18.2402 11.02C18.2052 11.09 18.1902 11.155 18.2052 11.21C18.2121 11.2361 18.2246 11.2604 18.2419 11.2811C18.2591 11.3019 18.2807 11.3186 18.3052 11.33C18.3302 11.345 18.3602 11.355 18.3902 11.355C18.42 11.3596 18.4503 11.3596 18.4802 11.355L18.5202 11.275L18.3752 11.2ZM13.8652 10.085L13.9652 9.38505L14.1752 9.42005L14.2302 9.91005L14.4252 9.46005L14.6352 9.49005L14.5352 10.18L14.4002 10.16L14.4852 9.61505L14.2652 10.14L14.1302 10.12L14.0752 9.55505L13.9952 10.105L13.8652 10.085ZM13.1602 10L13.2252 9.30005L13.7402 9.35005L13.7302 9.47005L13.3552 9.43505L13.3402 9.58505L13.6902 9.62005L13.6752 9.74005L13.3252 9.70505L13.3102 9.89505L13.7002 9.93005L13.6902 10.05L13.1602 10Z" fill="#309E3A"/>
<path d="M10.8235 9.56508C10.8235 9.49008 10.8385 9.43508 10.8585 9.38508C10.876 9.34952 10.8997 9.31735 10.9285 9.29008C10.9541 9.26421 10.9847 9.2438 11.0185 9.23008C11.0685 9.21508 11.1185 9.20508 11.1685 9.20508C11.2735 9.20508 11.3535 9.24508 11.4185 9.30508C11.4494 9.3433 11.4724 9.38731 11.4861 9.43452C11.4999 9.48174 11.5041 9.53122 11.4985 9.58008C11.4985 9.69008 11.4635 9.78008 11.3985 9.84508C11.3651 9.87595 11.3255 9.89947 11.2825 9.91411C11.2394 9.92875 11.1938 9.93419 11.1485 9.93008C11.1038 9.93053 11.0594 9.9219 11.0182 9.90471C10.9769 9.88752 10.9396 9.86213 10.9085 9.83008C10.8462 9.75644 10.8157 9.66117 10.8235 9.56508Z" fill="#309E3A"/>
<path d="M10.9707 9.56504C10.9707 9.64004 10.9857 9.70004 11.0207 9.74504C11.0557 9.78504 11.1007 9.81004 11.1607 9.81004C11.1867 9.81186 11.2127 9.80787 11.2369 9.79835C11.2611 9.78884 11.2829 9.77404 11.3007 9.75504C11.3357 9.71504 11.3507 9.65504 11.3557 9.57004C11.3557 9.49004 11.3457 9.43004 11.3057 9.39004C11.2894 9.36989 11.2689 9.3536 11.2455 9.34236C11.2222 9.33112 11.1966 9.32521 11.1707 9.32504C11.1444 9.3242 11.1182 9.32914 11.094 9.33951C11.0699 9.34987 11.0482 9.36542 11.0307 9.38504C10.9907 9.42504 10.9757 9.48504 10.9707 9.56504Z" fill="#F7FFFF"/>
<path d="M11.6504 9.9251L11.6604 9.2251H11.9604C12.0354 9.2251 12.0854 9.2351 12.1204 9.2501C12.1554 9.2601 12.1804 9.2851 12.2004 9.3151C12.2204 9.3451 12.2304 9.3851 12.2304 9.4301C12.2308 9.4782 12.2129 9.52466 12.1804 9.5601C12.1434 9.59472 12.0959 9.61586 12.0454 9.6201L12.1204 9.6801C12.1404 9.7001 12.1654 9.7401 12.1954 9.7951L12.2804 9.9351H12.1104L12.0104 9.7751L11.9404 9.6751C11.9283 9.66134 11.9128 9.651 11.8954 9.6451C11.8726 9.63846 11.8491 9.6351 11.8254 9.6351H11.7954V9.9251H11.6504Z" fill="#309E3A"/>
<path d="M11.8008 9.52522H11.9008C11.9708 9.52522 12.0158 9.52522 12.0308 9.51522C12.0458 9.51522 12.0608 9.50022 12.0708 9.49022C12.0808 9.48022 12.0858 9.45522 12.0858 9.44022C12.0858 9.41022 12.0808 9.39022 12.0658 9.38022C12.0558 9.36522 12.0358 9.35522 12.0158 9.35022H11.9158L11.8008 9.34521V9.52021V9.52522Z" fill="white"/>
<path d="M12.4491 9.26025L12.7091 9.27525C12.7641 9.27525 12.8091 9.28025 12.8391 9.29025C12.878 9.30437 12.9125 9.32852 12.9391 9.36025C12.9679 9.39521 12.9884 9.43624 12.9991 9.48025C13.0141 9.52525 13.0191 9.58025 13.0141 9.64525C13.014 9.69629 13.0056 9.74696 12.9891 9.79525C12.9691 9.84525 12.9391 9.88525 12.9041 9.91525C12.8749 9.93926 12.8407 9.95635 12.8041 9.96525C12.7741 9.97525 12.7291 9.97525 12.6791 9.97525L12.4141 9.96025L12.4491 9.26025Z" fill="#309E3A"/>
<path d="M12.5836 9.38501L12.5586 9.85001H12.7486C12.7736 9.85001 12.7936 9.84001 12.8086 9.82501C12.8236 9.81001 12.8386 9.79001 12.8486 9.76001C12.8586 9.73001 12.8686 9.68501 12.8686 9.63001L12.8636 9.50501C12.8565 9.47865 12.8427 9.45455 12.8236 9.43501C12.807 9.41831 12.7863 9.40624 12.7636 9.40001C12.7258 9.39159 12.6873 9.38657 12.6486 9.38501H12.5836Z" fill="white"/>
<path d="M15.8809 10.5101L16.0459 9.83008L16.2659 9.88008L16.4259 9.93008C16.4609 9.95008 16.4909 9.98008 16.5059 10.0251C16.5259 10.0651 16.5259 10.1101 16.5159 10.1651C16.5059 10.2051 16.4909 10.2401 16.4659 10.2651C16.4475 10.287 16.4246 10.3047 16.3987 10.3168C16.3727 10.3289 16.3445 10.3351 16.3159 10.3351C16.2809 10.3351 16.2309 10.3251 16.1659 10.3101L16.0809 10.2851L16.0209 10.5451L15.8809 10.5101Z" fill="#309E3A"/>
<path d="M16.1494 9.97998L16.1094 10.17L16.1844 10.19C16.2344 10.2 16.2744 10.21 16.2944 10.205C16.3138 10.2023 16.332 10.1936 16.3463 10.1802C16.3606 10.1668 16.3704 10.1492 16.3744 10.13C16.3744 10.105 16.3744 10.085 16.3644 10.065C16.3534 10.0447 16.3357 10.0288 16.3144 10.02L16.2194 9.99498L16.1544 9.97998H16.1494Z" fill="white"/>
<path d="M16.5293 10.7049L16.7643 10.0449L17.0393 10.1449C17.1143 10.1699 17.1593 10.1949 17.1893 10.2149C17.2143 10.2399 17.2343 10.2649 17.2393 10.3049C17.2443 10.3449 17.2493 10.3799 17.2393 10.4199C17.2193 10.4699 17.1893 10.5049 17.1493 10.5299C17.1093 10.5499 17.0593 10.5549 16.9993 10.5449C17.0193 10.5699 17.0393 10.5949 17.0493 10.6249L17.0893 10.7599L17.1193 10.9149L16.9643 10.8599L16.9143 10.6799C16.9052 10.6392 16.8935 10.5991 16.8793 10.5599C16.8727 10.5444 16.8624 10.5306 16.8493 10.5199C16.8393 10.5049 16.8193 10.4949 16.7843 10.4849L16.7593 10.4749L16.6593 10.7549L16.5293 10.7049Z" fill="#309E3A"/>
<path d="M16.7999 10.3701L16.8949 10.4051C16.9599 10.4301 16.9999 10.4401 17.0199 10.4401C17.0349 10.4401 17.0499 10.4401 17.0649 10.4251C17.0799 10.4151 17.0899 10.4001 17.0949 10.3801C17.1049 10.3601 17.1049 10.3401 17.0949 10.3201C17.0875 10.3007 17.0733 10.2847 17.0549 10.2751L16.9549 10.2401L16.8549 10.2051L16.7949 10.3701H16.7999Z" fill="white"/>
<path d="M17.3493 10.6802C17.3665 10.6216 17.3955 10.5672 17.4343 10.5202C17.4596 10.49 17.4901 10.4646 17.5243 10.4452C17.5553 10.4276 17.5892 10.4158 17.6243 10.4102C17.6743 10.4102 17.7243 10.4102 17.7793 10.4302C17.824 10.4412 17.8659 10.4616 17.9021 10.4901C17.9383 10.5185 17.968 10.5543 17.9893 10.5952C18.0293 10.6752 18.0293 10.7702 17.9993 10.8802C17.9746 10.9747 17.9135 11.0555 17.8293 11.1052C17.7543 11.1502 17.6643 11.1552 17.5693 11.1252C17.5248 11.1138 17.4831 11.0933 17.4469 11.0648C17.4107 11.0364 17.3809 11.0008 17.3593 10.9602C17.3393 10.9164 17.3281 10.8692 17.3264 10.8212C17.3247 10.7731 17.3325 10.7252 17.3493 10.6802Z" fill="#309E3A"/>
<path d="M17.4915 10.72C17.4715 10.795 17.4665 10.86 17.4915 10.91C17.5165 10.96 17.5515 10.99 17.6065 11.01C17.6565 11.025 17.7065 11.02 17.7565 10.99C17.8065 10.965 17.8365 10.91 17.8615 10.83C17.8865 10.755 17.8865 10.695 17.8615 10.645C17.8517 10.6213 17.8367 10.6 17.8177 10.5827C17.7987 10.5655 17.7761 10.5526 17.7515 10.545C17.7269 10.5365 17.7008 10.5335 17.6749 10.536C17.649 10.5386 17.624 10.5468 17.6015 10.56C17.5515 10.59 17.5165 10.64 17.4915 10.72Z" fill="white"/>
<path d="M18.7148 11.6549L19.0348 11.0349L19.2998 11.1699C19.3498 11.1939 19.3954 11.226 19.4348 11.2649C19.4598 11.2899 19.4748 11.3199 19.4748 11.3599C19.4748 11.3999 19.4748 11.4349 19.4548 11.4699C19.4356 11.5149 19.3998 11.5507 19.3548 11.5699C19.3048 11.5799 19.2548 11.5799 19.1998 11.5599C19.2198 11.5899 19.2298 11.6199 19.2398 11.6449C19.2498 11.6749 19.2548 11.7199 19.2598 11.7849L19.2698 11.9449L19.1198 11.8699L19.0998 11.6849C19.0975 11.643 19.0925 11.6012 19.0848 11.5599C19.0814 11.5412 19.0728 11.5239 19.0598 11.5099L18.9998 11.4749L18.9748 11.4599L18.8398 11.7199L18.7148 11.6549Z" fill="#309E3A"/>
<path d="M19.0254 11.36L19.1204 11.41C19.1804 11.44 19.2204 11.46 19.2354 11.46C19.2504 11.46 19.2704 11.46 19.2854 11.45C19.3004 11.445 19.3104 11.43 19.3204 11.41C19.3304 11.39 19.3354 11.37 19.3304 11.35C19.3242 11.33 19.312 11.3126 19.2954 11.3C19.2661 11.282 19.2361 11.2653 19.2054 11.25L19.1054 11.2L19.0254 11.36Z" fill="white"/>
<path d="M21.3047 12.935C21.3371 12.8835 21.3796 12.8393 21.4297 12.805C21.4634 12.7834 21.5006 12.7682 21.5397 12.76C21.576 12.7525 21.6134 12.7525 21.6497 12.76C21.6997 12.77 21.7447 12.79 21.7897 12.82C21.8286 12.8442 21.8621 12.8763 21.8879 12.9142C21.9137 12.952 21.9314 12.9949 21.9397 13.04C21.9547 13.125 21.9297 13.22 21.8697 13.315C21.8195 13.3976 21.7386 13.4569 21.6447 13.48C21.6 13.4896 21.5536 13.4897 21.5088 13.4802C21.464 13.4708 21.4217 13.4519 21.3847 13.425C21.3458 13.4007 21.3124 13.3686 21.2865 13.3308C21.2607 13.2929 21.2431 13.25 21.2347 13.205C21.2197 13.115 21.2447 13.025 21.3047 12.935Z" fill="#309E3A"/>
<path d="M21.429 13.0152C21.379 13.0802 21.364 13.1402 21.374 13.1952C21.3777 13.2205 21.3867 13.2448 21.4005 13.2663C21.4143 13.2879 21.4326 13.3062 21.454 13.3202C21.504 13.3552 21.554 13.3652 21.604 13.3502C21.654 13.3352 21.704 13.3002 21.749 13.2302C21.794 13.1602 21.814 13.1002 21.804 13.0502C21.799 13.0002 21.769 12.9552 21.724 12.9202C21.679 12.8852 21.624 12.8802 21.574 12.8952C21.524 12.9052 21.474 12.9452 21.424 13.0152H21.429Z" fill="white"/>
<path d="M15.0898 10.2251L15.2048 9.73511L15.5648 9.82011L15.5498 9.90011L15.2848 9.84011L15.2598 9.95011L15.5048 10.0051L15.4848 10.0901L15.2398 10.0301L15.2098 10.1651L15.4848 10.2301L15.4648 10.3101L15.0898 10.2251Z" fill="#309E3A"/>
</svg>
