<svg width="32" height="24" viewBox="0 0 32 24" fill="none" xmlns="http://www.w3.org/2000/svg">
<g clip-path="url(#clip0_757_354)">
<mask id="mask0_757_354" style="mask-type:luminance" maskUnits="userSpaceOnUse" x="0" y="0" width="33" height="24">
<path d="M0 0H32.0016V24H0V0Z" fill="white"/>
</mask>
<g mask="url(#mask0_757_354)">
<path fill-rule="evenodd" clip-rule="evenodd" d="M0 0H45.6V1.84688H0V0ZM0 3.69375H45.6V5.54062H0V3.69375ZM0 7.38281H45.6V9.23438H0V7.38281ZM0 11.0766H45.6V12.9234H0V11.0766ZM0 14.7703H45.6V16.6172H0V14.7703ZM0 18.4594H45.6V20.3063H0V18.4594ZM0 22.1531H45.6V24H0V22.1531Z" fill="#BD3D44"/>
<path fill-rule="evenodd" clip-rule="evenodd" d="M0 1.84692H45.6V3.6938H0V1.84692ZM0 5.54067H45.6V7.38286H0V5.54067ZM0 9.22974H45.6V11.0766H0V9.22974ZM0 12.9235H45.6V14.7704H0V12.9235ZM0 16.6172H45.6V18.4641H0V16.6172ZM0 20.3063H45.6V22.1532H0V20.3063Z" fill="white"/>
<path fill-rule="evenodd" clip-rule="evenodd" d="M0 0H18.2391V12.9234H0V0Z" fill="#192F5D"/>
<path fill-rule="evenodd" clip-rule="evenodd" d="M1.51758 0.553223L1.68633 1.06416H2.2207L1.78945 1.37822L1.95352 1.89385L1.51758 1.5751L1.08633 1.88916L1.25039 1.37822L0.814453 1.06416H1.3582L1.51758 0.553223ZM4.55977 0.553223L4.72383 1.06416H5.26289L4.82695 1.37822L4.99102 1.89385L4.55977 1.5751L4.12383 1.88916L4.28789 1.37822L3.85664 1.06416H4.39102L4.55977 0.553223ZM7.59727 0.553223L7.76602 1.06416H8.2957L7.86445 1.37822L8.02852 1.89385L7.59258 1.5751L7.16133 1.88916L7.32539 1.37822L6.88945 1.06416H7.42852L7.59727 0.553223ZM10.6395 0.553223L10.8035 1.06416H11.3426L10.9066 1.37822L11.0754 1.89385L10.6395 1.5751L10.2035 1.88916L10.3723 1.37822L9.93633 1.06416H10.4707L10.6395 0.553223ZM13.677 0.553223L13.8457 1.06416H14.3801L13.9488 1.37822L14.1129 1.89385L13.677 1.5751L13.2457 1.88916L13.4098 1.37822L12.9785 1.06416H13.5129L13.677 0.553223ZM16.7191 0.553223L16.8832 1.06416H17.4223L16.9863 1.37822L17.1551 1.89385L16.7191 1.5751L16.2832 1.88916L16.452 1.37822L16.016 1.06416H16.5551L16.7191 0.553223ZM3.04102 1.84697L3.20508 2.35791H3.74414L3.3082 2.67197L3.46758 3.18291L3.0457 2.86885L2.60977 3.18291L2.76445 2.67197L2.34258 2.35791H2.87695L3.04102 1.84697ZM6.07852 1.84697L6.24727 2.35791H6.78164L6.3457 2.67197L6.51445 3.18291L6.07852 2.86885L5.64258 3.18291L5.81133 2.67197L5.37539 2.35791H5.91445L6.07852 1.84697ZM9.1207 1.84697L9.28477 2.35791H9.82383L9.38789 2.67197L9.55195 3.18291L9.1207 2.86885L8.68477 3.18291L8.84883 2.67197L8.41758 2.35791H8.95195L9.1207 1.84697ZM12.1582 1.84697L12.327 2.35791H12.8613L12.4254 2.67197L12.5941 3.18291L12.1582 2.86885L11.727 3.18291L11.891 2.67197L11.4551 2.35791H11.9988L12.1582 1.84697ZM15.2004 1.84697L15.3645 2.35791H15.9035L15.4676 2.67197L15.6316 3.18291L15.2004 2.86885L14.7645 3.18291L14.9285 2.67197L14.4973 2.35791H15.0316L15.2004 1.84697ZM1.51758 3.13603L1.68633 3.65635H2.2207L1.78945 3.97041L1.95352 4.48135L1.51758 4.1626L1.08633 4.48135L1.25039 3.96572L0.814453 3.65166H1.3582L1.51758 3.13603ZM4.55977 3.13603L4.72383 3.65166H5.26289L4.82695 3.96572L4.99102 4.47666L4.55977 4.15791L4.12383 4.47666L4.28789 3.96103L3.85664 3.64697H4.39102L4.55977 3.13603ZM7.59727 3.13603L7.76602 3.65166H8.2957L7.86445 3.96572L8.02852 4.47666L7.59258 4.15791L7.16133 4.47666L7.32539 3.96103L6.88945 3.64697H7.42852L7.59727 3.13603ZM10.6395 3.13603L10.8035 3.65166H11.3426L10.9066 3.96572L11.0754 4.47666L10.6395 4.15791L10.2035 4.47666L10.3723 3.96103L9.93633 3.64697H10.4707L10.6395 3.13603ZM13.677 3.13603L13.8457 3.65166H14.3801L13.9488 3.96572L14.1129 4.47666L13.677 4.15791L13.2457 4.47666L13.4098 3.96103L12.9785 3.64697H13.5129L13.677 3.13603ZM16.7191 3.13603L16.8832 3.65166H17.4223L16.9863 3.96572L17.1551 4.47666L16.7191 4.15791L16.2832 4.47666L16.452 3.96103L16.016 3.64697H16.5551L16.7191 3.13603ZM3.04102 4.42978L3.20508 4.94072H3.74414L3.3082 5.25478L3.47227 5.77041L3.04102 5.45166L2.60508 5.76572L2.76914 5.25478L2.33789 4.94072H2.87227L3.04102 4.42978ZM6.07852 4.42978L6.24727 4.94072H6.78164L6.3457 5.25478L6.51445 5.77041L6.07852 5.45166L5.64258 5.76572L5.81133 5.25478L5.37539 4.94072H5.91445L6.07852 4.42978ZM9.1207 4.42978L9.28477 4.94072H9.82383L9.38789 5.25478L9.55195 5.77041L9.1207 5.45166L8.68477 5.76572L8.84883 5.25478L8.41758 4.94072H8.95195L9.1207 4.42978ZM12.1582 4.42978L12.327 4.94072H12.8613L12.4301 5.25478L12.5941 5.77041L12.1582 5.45166L11.727 5.76572L11.891 5.25478L11.4551 4.94072H11.9988L12.1582 4.42978ZM15.2004 4.42978L15.3645 4.94072H15.9035L15.4676 5.25478L15.6316 5.77041L15.2004 5.45166L14.7645 5.76572L14.9285 5.25478L14.4973 4.94072H15.0316L15.2004 4.42978ZM1.51758 5.72353L1.68633 6.23447H2.2207L1.78945 6.54853L1.95352 7.06416L1.51758 6.74541L1.08633 7.05947L1.25039 6.54853L0.814453 6.23447H1.3582L1.51758 5.72353ZM4.55977 5.72353L4.72383 6.23447H5.26289L4.82695 6.54853L4.99102 7.05947L4.55977 6.74541L4.12383 7.05947L4.28789 6.54853L3.85664 6.23447H4.39102L4.55977 5.72353ZM7.59727 5.72353L7.76602 6.23447H8.2957L7.86445 6.54853L8.02852 7.06416L7.59258 6.74541L7.16133 7.05947L7.32539 6.54853L6.88945 6.23447H7.42852L7.59727 5.72353ZM10.6395 5.72353L10.8035 6.23447H11.3426L10.9066 6.54853L11.0754 7.06416L10.6395 6.74541L10.2035 7.05947L10.3723 6.54853L9.93633 6.23447H10.4707L10.6395 5.72353ZM13.677 5.72353L13.8457 6.23447H14.3801L13.9488 6.54853L14.1129 7.06416L13.677 6.74541L13.2457 7.05947L13.4098 6.54853L12.9785 6.23447H13.5129L13.677 5.72353ZM16.7191 5.72353L16.8832 6.23447H17.4223L16.9863 6.54853L17.1551 7.06416L16.7191 6.74541L16.2832 7.05947L16.452 6.54853L16.016 6.23447H16.5551L16.7191 5.72353ZM3.04102 7.01728L3.20508 7.52822H3.74414L3.3082 7.84228L3.47227 8.35322L3.04102 8.03447L2.60508 8.35322L2.76914 7.8376L2.33789 7.52353H2.87227L3.04102 7.01728ZM6.07852 7.01728L6.24727 7.52822H6.78164L6.3457 7.84228L6.51445 8.35322L6.07852 8.03447L5.64258 8.35322L5.81133 7.8376L5.37539 7.52353H5.91445L6.07852 7.01728ZM9.1207 7.01728L9.28477 7.52822H9.82383L9.38789 7.84228L9.55195 8.35322L9.1207 8.03447L8.68477 8.35322L8.84883 7.8376L8.41758 7.52353H8.95195L9.1207 7.01728ZM12.1582 7.01728L12.327 7.52822H12.8613L12.4301 7.84228L12.5941 8.35322L12.1582 8.03447L11.727 8.35322L11.891 7.8376L11.4551 7.52353H11.9988L12.1582 7.01728ZM15.2004 7.01728L15.3645 7.52822H15.9035L15.4676 7.84228L15.6316 8.35322L15.2004 8.03447L14.7645 8.35322L14.9285 7.8376L14.4973 7.52353H15.0316L15.2004 7.01728ZM1.51758 8.30635L1.68633 8.82197H2.2207L1.78945 9.13603L1.95352 9.64228L1.51758 9.32822L1.08633 9.64228L1.25039 9.13135L0.814453 8.81728H1.3582L1.51758 8.30635ZM4.55977 8.30635L4.72383 8.82197H5.26289L4.82695 9.13603L4.9957 9.64228L4.55977 9.32822L4.12383 9.64228L4.29258 9.13135L3.85664 8.81728H4.39102L4.55977 8.30635ZM7.59727 8.30635L7.76602 8.82197H8.2957L7.86445 9.13603L8.02852 9.64228L7.59258 9.32822L7.16133 9.64228L7.32539 9.13135L6.88945 8.81728H7.42852L7.59727 8.30635ZM10.6395 8.30635L10.8035 8.82197H11.3426L10.9066 9.13603L11.0754 9.64228L10.6395 9.32822L10.2035 9.64228L10.3723 9.13135L9.93633 8.81728H10.4707L10.6395 8.30635ZM13.677 8.30635L13.8457 8.82197H14.3801L13.9488 9.13603L14.1129 9.64228L13.677 9.32822L13.2457 9.64228L13.4098 9.13135L12.9785 8.81728H13.5129L13.677 8.30635ZM16.7191 8.30635L16.8832 8.82197H17.4223L16.9863 9.13603L17.1551 9.64228L16.7191 9.32822L16.2832 9.64228L16.452 9.13135L16.016 8.81728H16.5551L16.7191 8.30635ZM3.04102 9.6001L3.20508 10.111H3.74414L3.3082 10.4251L3.47227 10.9407L3.04102 10.622L2.60508 10.936L2.76914 10.4251L2.33789 10.111H2.87227L3.04102 9.6001ZM6.07852 9.6001L6.24727 10.111H6.78164L6.3457 10.4251L6.51445 10.9407L6.07852 10.622L5.64258 10.936L5.81133 10.4251L5.37539 10.111H5.91445L6.07852 9.6001ZM9.1207 9.6001L9.28477 10.111H9.82383L9.38789 10.4251L9.55195 10.9407L9.1207 10.622L8.68477 10.936L8.84883 10.4251L8.41758 10.111H8.95195L9.1207 9.6001ZM12.1582 9.6001L12.327 10.111H12.8613L12.4301 10.4251L12.5941 10.9407L12.1582 10.622L11.727 10.936L11.891 10.4251L11.4551 10.111H11.9988L12.1582 9.6001ZM15.2004 9.6001L15.3645 10.111H15.9035L15.4676 10.4251L15.6316 10.9407L15.2004 10.622L14.7645 10.936L14.9285 10.4251L14.4973 10.111H15.0316L15.2004 9.6001ZM1.51758 10.8938L1.68633 11.4048H2.2207L1.78945 11.7188L1.95352 12.2298L1.51758 11.9157L1.08633 12.2298L1.25039 11.7142L0.814453 11.4001H1.3582L1.51758 10.8938ZM4.55977 10.8938L4.72383 11.4048H5.26289L4.82695 11.7188L4.9957 12.2298L4.55977 11.9157L4.12383 12.2298L4.29258 11.7142L3.85664 11.4001H4.39102L4.55977 10.8938ZM7.59727 10.8938L7.76602 11.4048H8.2957L7.87383 11.7188L8.03789 12.2298L7.60195 11.9157L7.1707 12.2298L7.33477 11.7142L6.89883 11.4001H7.43789L7.59727 10.8938ZM10.6395 10.8938L10.8035 11.4048H11.3426L10.9066 11.7188L11.0754 12.2298L10.6395 11.9157L10.2035 12.2298L10.3723 11.7142L9.93633 11.4001H10.4707L10.6395 10.8938ZM13.677 10.8938L13.8457 11.4048H14.3801L13.9488 11.7188L14.1129 12.2298L13.677 11.9157L13.2457 12.2298L13.4098 11.7142L12.9785 11.4001H13.5129L13.677 10.8938ZM16.7191 10.8938L16.8832 11.4048H17.4223L16.9863 11.7188L17.1551 12.2298L16.7191 11.9157L16.2832 12.2298L16.452 11.7142L16.016 11.4001H16.5551L16.7191 10.8938Z" fill="white"/>
</g>
</g>
<defs>
<clipPath id="clip0_757_354">
<rect width="32" height="24" rx="4.8" fill="white"/>
</clipPath>
</defs>
</svg>
